# xmcd
#
# Track frame offsets:
#	150
#	18357
#	37334
#	53676
#	72915
#	92902
#	110847
#	129059
#	147341
#	164173
#	185612
#	206949
#	223696
#	241166
#	258168
#	276092
#	295294
#
# Disc length: 4008 seconds
#
# Revision: 0
# Processed by: cddbd v1.5.1PL2 Copyright (c) Steve Scherf et al.
# Submitted via: dBpowerAMP V4.0
#
DISCID=0f0fa611
DTITLE=M People - The Best of M People
DYEAR=1998
DGENRE=Soul
TTITLE0=M People - Testify
TTITLE1=M People - Search for the hero
TTITLE2=M People - Moving on up
TTITLE3=M People - Angel st
TTITLE4=M People - One night in haven
TTITLE5=M People - Itchycoo park
TTITLE6=M People - Sight for sore eyes
TTITLE7=M People - Just for you
TTITLE8=M People - Colour my life
TTITLE9=M People - How can i love you more
TTITLE10=M People - Dreaming
TTITLE11=M People - Open your heart
TTITLE12=M People - Don't look any further
TTITLE13=M People - Someday
TTITLE14=M People - Renaissance
TTITLE15=M People - Fantasy island
TTITLE16=M People - What a fool believes
EXTD=
EXTT0=
EXTT1=
EXTT2=
EXTT3=
EXTT4=
EXTT5=
EXTT6=
EXTT7=
EXTT8=
EXTT9=
EXTT10=
EXTT11=
EXTT12=
EXTT13=
EXTT14=
EXTT15=
EXTT16=
PLAYORDER=
